<svg width="82" height="45" viewBox="0 0 82 45" fill="none" xmlns="http://www.w3.org/2000/svg">
<path d="M18.072 5.424L19.632 4.32C17.76 2.736 15.336 2.52 12.984 2.52H10.368C5.712 2.52 2.208 4.44 2.208 9.6C2.208 14.76 5.712 16.68 10.368 16.68H12.984C17.64 16.68 21.6 14.904 21.6 9.6V8.88H13.296V10.32H19.92C19.152 13.824 16.344 15.216 12.984 15.216H10.368C6.624 15.216 3.744 13.728 3.744 9.6C3.744 5.472 6.648 3.984 10.368 3.984H12.984C14.76 3.984 16.632 4.344 18.072 5.424ZM21.672 4.656L18 7.272C16.68 5.88 14.856 5.328 12.984 5.328H10.368C7.536 5.328 5.064 6.384 5.064 9.6C5.064 12.84 7.512 13.872 10.368 13.872H12.984C14.856 13.872 17.16 13.392 18.192 11.64H11.952V7.56H22.92V9.6C22.92 15.792 18.504 18.024 12.984 18.024H10.368C4.824 18.024 0.912 15.672 0.912 9.6C0.912 3.528 4.824 1.176 10.368 1.176H12.984C16.44 1.176 19.416 1.728 21.672 4.656ZM4.752 18.384C6.528 20.16 9.528 20.952 12.768 20.952H15.384C21.192 20.952 25.848 18.576 25.848 12V9.432L24.096 7.68L24.816 7.176C24.48 6.744 24.12 6.144 22.2 4.248C19.512 0.983999 16.488 0.576 12.984 0.576H10.368C4.464 0.576 0.312 3.096 0.312 9.6C0.312 13.032 1.152 15.312 4.752 18.384ZM11.352 12.24L12.528 13.272H10.368C9.552 13.272 8.76 13.176 8.088 12.96C8.016 12.672 7.992 12.36 7.992 12C7.992 9.744 9.432 8.688 11.352 8.4V12.24ZM32.9404 8.88V3.984H47.6284V2.52H31.4524V16.68H47.6524V15.216H32.9404V10.32H45.1564V8.88H32.9404ZM34.2604 5.328V7.56H46.4764V11.64H34.2604V13.872H48.9964V18.024H30.1084V1.176H48.9724V5.328H34.2604ZM31.9804 20.952H51.9244V15.744L49.4044 13.272V9.432L48.2284 8.256H51.9004V3.048L49.5724 0.576H29.5084V18.624L31.9804 20.952ZM64.5264 16.68H65.9664V3.984H74.0304V2.52H56.4864V3.984H64.5264V16.68ZM67.2864 18.024H63.2064V5.328H55.1664V1.176H75.3504V5.328H67.2864V18.024ZM57.0384 8.256H62.6064V18.624L65.0784 20.952H70.2144V8.256H78.2784V3.048L75.9504 0.576H54.5664V5.928L57.0384 8.256ZM10.344 27.984H12.96C15.192 27.984 17.472 28.584 18.984 30.312L20.52 29.352C18.744 26.856 15.792 26.52 12.96 26.52H10.344C5.664 26.52 2.184 28.416 2.184 33.6C2.184 38.784 5.664 40.68 10.344 40.68H12.96C15.792 40.68 18.744 40.344 20.52 37.848L18.984 36.888C17.472 38.616 15.192 39.216 12.96 39.216H10.344C6.6 39.216 3.696 37.752 3.696 33.6C3.696 29.472 6.6 27.984 10.344 27.984ZM12.96 29.328H10.344C7.512 29.328 5.04 30.384 5.04 33.6C5.04 36.84 7.488 37.872 10.344 37.872H12.96C15.24 37.872 17.256 37.08 18.576 35.16L22.392 37.416C20.208 41.16 16.992 42.024 12.96 42.024H10.344C4.8 42.024 0.84 39.672 0.84 33.6C0.84 27.528 4.8 25.176 10.344 25.176H12.96C16.992 25.176 20.208 26.04 22.392 29.784L18.576 32.04C17.256 30.12 15.24 29.328 12.96 29.328ZM4.44 42.336C6.24 44.112 9.504 44.952 12.744 44.952H15.36C19.56 44.952 22.968 43.944 25.512 39.624L23.232 37.2L18.432 34.368C16.992 36.432 15.048 37.272 12.96 37.272H10.344C9.528 37.272 8.736 37.176 8.064 36.96C7.992 36.672 7.968 36.36 7.968 36C7.968 33.192 10.2 32.256 12.744 32.256H15.36C16.656 32.256 17.904 32.592 19.008 33.312L20.832 35.136L25.512 32.376C24.936 31.392 24.096 30.048 23.424 29.376C19.488 24.84 16.632 24.576 12.96 24.576H10.344C4.44 24.576 0.24 27.096 0.24 33.6C0.24 36.936 0.816 39.144 4.44 42.336ZM33.5004 35.472L38.6844 28.296L43.7484 35.472H33.5004ZM38.6364 30.576L36.0684 34.176H41.1564L38.6364 30.576ZM49.1244 40.68L39.2124 26.52H38.0604C34.7244 31.272 31.2924 35.952 27.9324 40.68H29.8524C30.7404 39.456 31.5804 38.184 32.4684 36.96H44.7324L47.3244 40.68H49.1244ZM39.9324 25.176L51.6924 42.024H46.6044L43.9884 38.304H33.1404L30.5004 42.024H25.4124L37.4124 25.176H39.9324ZM40.2444 24.576H37.1004L24.2364 42.624L26.7804 44.952H33.1884C33.9324 43.872 35.0364 42.36 35.8284 41.232H45.3084L46.2924 42.624L48.7164 44.952H55.1004L42.6204 27.048L40.2444 24.576ZM60.492 29.328V31.56H69.372C70.044 31.56 71.196 31.344 71.196 30.456C71.196 29.52 70.14 29.328 69.396 29.328H60.492ZM59.172 32.88V27.984H69.396C71.004 27.984 72.54 28.632 72.54 30.456C72.54 32.208 70.908 32.88 69.372 32.88H59.172ZM71.556 33.96H71.58C73.188 33.312 74.004 32.208 74.004 30.456C74.004 27.648 72.036 26.52 69.396 26.52H57.684V40.68H59.172V34.32H67.98L73.524 40.68H75.468C73.668 38.592 71.82 36.552 70.044 34.44C70.524 34.32 71.124 34.2 71.556 33.96ZM75.348 30.456C75.348 32.664 74.364 34.2 72.348 35.088L78.396 42.024H72.876L67.356 35.64H60.492V42.024H56.388V25.176H69.396C72.924 25.176 75.348 26.808 75.348 30.456ZM58.26 44.952H63.42V38.568H69.108L72.612 42.624L75.036 44.952H81.948C80.004 42.744 77.604 39.936 75.612 37.656C77.316 36.648 78.276 34.968 78.276 32.856C78.276 31.056 77.724 29.4 76.788 28.464C73.884 25.056 71.892 24.576 69.396 24.576H55.788V42.624L58.26 44.952Z" fill="#56CCF2"/>
</svg>
